<?xml version="1.0" encoding="utf-8"?>
<!-- Generator: Adobe Illustrator 16.0.0, SVG Export Plug-In . SVG Version: 6.00 Build 0)  -->
<!DOCTYPE svg PUBLIC "-//W3C//DTD SVG 1.1//EN" "http://www.w3.org/Graphics/SVG/1.1/DTD/svg11.dtd">
<svg version="1.1" id="Layer_1" xmlns="http://www.w3.org/2000/svg" xmlns:xlink="http://www.w3.org/1999/xlink" x="0px" y="0px"
	 width="960px" height="350px" viewBox="0 0 960 350" enable-background="new 0 0 960 350" xml:space="preserve">
<g opacity="0.5">
	<linearGradient id="SVGID_1_" gradientUnits="userSpaceOnUse" x1="30.4946" y1="20.2456" x2="945.8226" y2="187.1286">
		<stop  offset="0" style="stop-color:#006C80"/>
		<stop  offset="0" style="stop-color:#006C80"/>
		<stop  offset="1" style="stop-color:#882957"/>
	</linearGradient>
	<path fill="url(#SVGID_1_)" d="M359.367,30.919c-1.679-1.631-3.65-2.447-5.911-2.447c-2.63,0-4.713,0.908-6.251,2.719
		c-1.542,1.814-2.311,4.033-2.311,6.659v61.564c0,1.723-0.048,3.376-0.136,4.961c-0.092,1.585-0.409,3.038-0.952,4.349
		c-0.542,1.313-1.337,2.401-2.381,3.262c-1.039,0.861-2.509,1.426-4.415,1.696c-1.358,0.184-2.49,0.729-3.394,1.633h-0.141
		c-1.443,1.269-2.17,2.945-2.17,5.027c0,1.815,0.592,3.329,1.764,4.554c1.181,1.224,2.672,1.926,4.487,2.107
		c5.523,0,9.897-0.771,13.112-2.311c3.216-1.539,5.66-3.602,7.339-6.184c1.676-2.581,2.764-5.571,3.263-8.968
		c0.497-3.399,0.745-6.953,0.745-10.669l-0.134-62.245C361.882,34.453,361.043,32.551,359.367,30.919z"/>
	<linearGradient id="SVGID_2_" gradientUnits="userSpaceOnUse" x1="33.2974" y1="4.8613" x2="948.6282" y2="171.7449">
		<stop  offset="0" style="stop-color:#006C80"/>
		<stop  offset="0" style="stop-color:#006C80"/>
		<stop  offset="1" style="stop-color:#882957"/>
	</linearGradient>
	<path fill="url(#SVGID_2_)" d="M439.117,92.415c1.587-1.584,2.469-3.511,2.652-5.777c0-4.348-0.903-8.583-2.716-12.705
		c-1.812-4.122-4.308-7.815-7.476-11.077c-3.173-3.261-6.911-5.933-11.212-8.018c-4.307-2.083-8.951-3.262-13.929-3.533V65.71
		c2.802,0.184,5.318,0.84,7.536,1.97c2.225,1.135,4.103,2.471,5.646,4.01c1.536,1.541,2.739,3.216,3.599,5.027
		c0.859,1.815,1.379,3.534,1.564,5.165h-18.345v12.913h26.771C435.562,94.794,437.532,94.001,439.117,92.415z"/>
	<linearGradient id="SVGID_3_" gradientUnits="userSpaceOnUse" x1="30.2549" y1="21.5439" x2="945.5909" y2="188.4284">
		<stop  offset="0" style="stop-color:#006C80"/>
		<stop  offset="0" style="stop-color:#006C80"/>
		<stop  offset="1" style="stop-color:#882957"/>
	</linearGradient>
	<path fill="url(#SVGID_3_)" d="M376.943,63.4c-3.171,3.445-5.64,7.406-7.404,11.892c-1.77,4.485-2.652,9.174-2.652,14.064
		c0,4.805,0.882,9.402,2.652,13.795c1.765,4.396,4.209,8.337,7.339,11.824c3.122,3.489,6.861,6.319,11.207,8.494
		c4.352,2.174,9.109,3.397,14.271,3.669V112.46c-2.263-0.18-4.437-0.701-6.521-1.563c-2.083-0.861-3.987-2.039-5.709-3.534
		c-1.72-1.495-3.121-3.305-4.209-5.435c-1.088-2.128-1.727-4.506-1.905-7.134h18.345V81.882h-18.073
		c0.183-1.631,0.701-3.349,1.563-5.165c0.859-1.811,2.038-3.486,3.532-5.027c1.495-1.54,3.329-2.83,5.504-3.875
		c2.177-1.04,4.665-1.698,7.474-1.971V51.305c-5.162,0.271-9.897,1.494-14.202,3.668C383.854,57.147,380.113,59.957,376.943,63.4z"
		/>
	<linearGradient id="SVGID_4_" gradientUnits="userSpaceOnUse" x1="26.3965" y1="42.5615" x2="941.7903" y2="209.4565">
		<stop  offset="0" style="stop-color:#006C80"/>
		<stop  offset="0" style="stop-color:#006C80"/>
		<stop  offset="1" style="stop-color:#882957"/>
	</linearGradient>
	<path fill="url(#SVGID_4_)" d="M426.14,121.702c2.992-1.63,5.482-3.533,7.474-5.708c1.993-2.175,2.994-4.438,2.994-6.795
		c0-2.355-0.883-4.371-2.652-6.048c-1.767-1.674-3.741-2.515-5.912-2.515c-1.449,0-2.786,0.363-4.01,1.088
		c-1.221,0.725-2.197,1.586-2.921,2.582l-0.271,0.271c-1.543,2.267-3.49,4.103-5.845,5.505c-2.361,1.407-5.212,2.199-8.562,2.378
		v14.678c3.079,0,6.385-0.499,9.918-1.496C419.889,124.646,423.153,123.333,426.14,121.702z"/>
	<linearGradient id="SVGID_5_" gradientUnits="userSpaceOnUse" x1="31.9536" y1="12.21" x2="947.2997" y2="179.0963">
		<stop  offset="0" style="stop-color:#006C80"/>
		<stop  offset="0" style="stop-color:#006C80"/>
		<stop  offset="1" style="stop-color:#882957"/>
	</linearGradient>
	<path fill="url(#SVGID_5_)" d="M454.329,127.139c2.263,0,4.209-0.792,5.845-2.38c1.63-1.583,2.49-3.554,2.583-5.911l0.136-59.526
		c-0.185-2.354-1.067-4.281-2.652-5.775c-1.585-1.495-3.556-2.243-5.911-2.243c-2.361,0-4.328,0.816-5.917,2.445
		c-1.585,1.631-2.464,3.49-2.646,5.572v59.662c0.182,2.266,1.061,4.191,2.646,5.775
		C450.001,126.347,451.968,127.139,454.329,127.139z"/>
	<linearGradient id="SVGID_6_" gradientUnits="userSpaceOnUse" x1="37.2339" y1="-16.7729" x2="952.5869" y2="150.1146">
		<stop  offset="0" style="stop-color:#006C80"/>
		<stop  offset="0" style="stop-color:#006C80"/>
		<stop  offset="1" style="stop-color:#882957"/>
	</linearGradient>
	<path fill="url(#SVGID_6_)" d="M483.412,65.915c1.449-1.585,2.177-3.466,2.177-5.641c0-1.359-0.278-2.583-0.82-3.668l-0.133-0.272
		c-0.725-1.268-1.723-2.333-2.991-3.195c-1.268-0.862-2.761-1.292-4.482-1.292c-0.549,0-1.184,0.091-1.904,0.273h-0.272
		c-1.63,0.453-3.128,1.019-4.488,1.697c-1.356,0.681-2.537,1.475-3.531,2.378v17.125c2.445-2.717,6.07-4.303,10.87-4.758
		C480.106,68.384,481.961,67.5,483.412,65.915z"/>
	<linearGradient id="SVGID_7_" gradientUnits="userSpaceOnUse" x1="36.5576" y1="-12.9365" x2="951.8652" y2="153.9428">
		<stop  offset="0" style="stop-color:#006C80"/>
		<stop  offset="0" style="stop-color:#006C80"/>
		<stop  offset="1" style="stop-color:#882957"/>
	</linearGradient>
	<path fill="url(#SVGID_7_)" d="M486.199,82.358c1.401,2.22,3.258,4.078,5.567,5.573c2.312,1.495,4.915,2.785,7.814,3.874
		c2.902,1.085,5.89,2.129,8.972,3.125V79.572c-2.089-0.904-3.852-1.924-5.303-3.057c-1.45-1.132-2.171-2.604-2.171-4.418
		c0-1.628,0.613-3.169,1.837-4.621c1.223-1.449,3.102-2.261,5.637-2.444V51.305c-3.353,0.092-6.504,0.679-9.447,1.766
		c-2.945,1.088-5.525,2.628-7.742,4.622c-2.227,1.994-3.991,4.371-5.302,7.135c-1.314,2.765-1.973,5.823-1.973,9.172
		C484.089,77.353,484.793,80.139,486.199,82.358z"/>
	<linearGradient id="SVGID_8_" gradientUnits="userSpaceOnUse" x1="38.5781" y1="-24.2065" x2="953.9522" y2="142.6849">
		<stop  offset="0" style="stop-color:#006C80"/>
		<stop  offset="0" style="stop-color:#006C80"/>
		<stop  offset="1" style="stop-color:#882957"/>
	</linearGradient>
	<path fill="url(#SVGID_8_)" d="M517.793,69.652c0,0.816,0.275,1.585,0.818,2.31c0.545,0.725,1.199,1.358,1.966,1.902
		c0.771,0.544,1.609,0.95,2.518,1.222c0.904,0.272,1.722,0.407,2.446,0.407c2.173,0,4.057-0.768,5.644-2.308
		c1.579-1.542,2.375-3.488,2.375-5.846c0-1.085-0.27-2.263-0.812-3.532v-0.272c-1.09-2.084-2.403-3.874-3.947-5.37
		c-1.538-1.494-3.215-2.717-5.026-3.668c-1.816-0.952-3.671-1.677-5.57-2.175c-1.905-0.497-3.762-0.836-5.576-1.02v13.999
		c1.452,0.362,2.561,0.929,3.33,1.698C516.727,67.772,517.339,68.656,517.793,69.652z"/>
	<linearGradient id="SVGID_9_" gradientUnits="userSpaceOnUse" x1="29.1592" y1="27.8462" x2="944.3976" y2="194.7129">
		<stop  offset="0" style="stop-color:#006C80"/>
		<stop  offset="0" style="stop-color:#006C80"/>
		<stop  offset="1" style="stop-color:#882957"/>
	</linearGradient>
	<path fill="url(#SVGID_9_)" d="M508.553,127.003v-13.864c-1.54-0.27-3.128-0.881-4.756-1.834c-1.633-0.952-2.809-2.558-3.534-4.824
		v-0.273c-0.185-0.541-0.32-0.903-0.41-1.085l-0.271-0.409c-0.724-1.36-1.742-2.422-3.056-3.193
		c-1.315-0.768-2.738-1.156-4.283-1.156c-2.353,0-4.328,0.815-5.909,2.446c-1.586,1.632-2.381,3.581-2.381,5.845
		c0,0.634,0.071,1.202,0.206,1.698c0.135,0.5,0.293,1.111,0.478,1.835c1.085,2.628,2.531,4.849,4.346,6.66
		c1.812,1.813,3.807,3.309,5.979,4.484c2.177,1.178,4.444,2.062,6.798,2.651C504.109,126.573,506.377,126.914,508.553,127.003z"/>
	<linearGradient id="SVGID_10_" gradientUnits="userSpaceOnUse" x1="31.1934" y1="16.1909" x2="946.6008" y2="183.0884">
		<stop  offset="0" style="stop-color:#006C80"/>
		<stop  offset="0" style="stop-color:#006C80"/>
		<stop  offset="1" style="stop-color:#882957"/>
	</linearGradient>
	<path fill="url(#SVGID_10_)" d="M529.551,87.522c-2.308-1.583-4.891-2.852-7.749-3.805c-2.852-0.951-5.688-1.788-8.49-2.515
		l-0.684-0.272v15.63c2.624,1.179,4.53,2.357,5.713,3.533c1.174,1.179,1.763,2.809,1.763,4.892c0,2.086-0.705,3.829-2.104,5.233
		c-1.407,1.406-3.195,2.334-5.371,2.786v13.999c3.35-0.272,6.528-1.02,9.513-2.244c2.987-1.221,5.621-2.854,7.885-4.891
		c2.267-2.039,4.033-4.463,5.304-7.27c1.267-2.809,1.9-5.935,1.9-9.378c0-3.896-0.704-7.09-2.108-9.582
		C533.717,91.148,531.86,89.108,529.551,87.522z"/>
	<linearGradient id="SVGID_11_" gradientUnits="userSpaceOnUse" x1="35.7549" y1="-8.8818" x2="951.1754" y2="158.018">
		<stop  offset="0" style="stop-color:#006C80"/>
		<stop  offset="0" style="stop-color:#006C80"/>
		<stop  offset="1" style="stop-color:#882957"/>
	</linearGradient>
	<path fill="url(#SVGID_11_)" d="M549.324,63.4c-3.173,3.445-5.64,7.406-7.411,11.892c-1.763,4.485-2.646,9.174-2.646,14.064
		c0,4.805,0.883,9.402,2.646,13.795c1.771,4.396,4.216,8.337,7.342,11.824c3.128,3.489,6.867,6.319,11.211,8.494
		c4.351,2.174,9.104,3.397,14.272,3.669V112.46c-2.27-0.18-4.442-0.701-6.53-1.563c-2.082-0.861-3.98-2.039-5.704-3.534
		c-1.721-1.495-3.126-3.305-4.212-5.435c-1.085-2.128-1.721-4.506-1.902-7.134h18.349V81.882h-18.077
		c0.182-1.631,0.705-3.349,1.564-5.165c0.861-1.811,2.04-3.486,3.535-5.027c1.492-1.54,3.328-2.83,5.505-3.875
		c2.168-1.04,4.656-1.698,7.473-1.971V51.305c-5.168,0.271-9.901,1.494-14.202,3.668C556.229,57.147,552.496,59.957,549.324,63.4z"
		/>
	<linearGradient id="SVGID_12_" gradientUnits="userSpaceOnUse" x1="31.9678" y1="12.1499" x2="947.3098" y2="179.0355">
		<stop  offset="0" style="stop-color:#006C80"/>
		<stop  offset="0" style="stop-color:#006C80"/>
		<stop  offset="1" style="stop-color:#882957"/>
	</linearGradient>
	<path fill="url(#SVGID_12_)" d="M598.516,121.702c2.994-1.63,5.482-3.533,7.479-5.708c1.991-2.175,2.988-4.438,2.988-6.795
		c0-2.355-0.882-4.371-2.651-6.048c-1.766-1.674-3.733-2.515-5.912-2.515c-1.448,0-2.786,0.363-4.008,1.088
		c-1.222,0.725-2.198,1.586-2.922,2.582l-0.271,0.271c-1.544,2.267-3.491,4.103-5.846,5.505c-2.355,1.407-5.213,2.199-8.562,2.378
		v14.678c3.079,0,6.386-0.499,9.919-1.496C592.265,124.646,595.531,123.333,598.516,121.702z"/>
	<linearGradient id="SVGID_13_" gradientUnits="userSpaceOnUse" x1="38.8574" y1="-25.5527" x2="954.1735" y2="141.3281">
		<stop  offset="0" style="stop-color:#006C80"/>
		<stop  offset="0" style="stop-color:#006C80"/>
		<stop  offset="1" style="stop-color:#882957"/>
	</linearGradient>
	<path fill="url(#SVGID_13_)" d="M611.497,92.415c1.581-1.584,2.467-3.511,2.646-5.777c0-4.348-0.902-8.583-2.716-12.705
		c-1.813-4.122-4.302-7.815-7.474-11.077c-3.171-3.261-6.912-5.933-11.212-8.018c-4.304-2.083-8.947-3.262-13.931-3.533V65.71
		c2.809,0.184,5.319,0.84,7.545,1.97c2.217,1.135,4.095,2.471,5.638,4.01c1.536,1.541,2.739,3.216,3.6,5.027
		c0.86,1.815,1.379,3.534,1.563,5.165h-18.346v12.913h26.771C607.937,94.794,609.911,94.001,611.497,92.415z"/>
	<linearGradient id="SVGID_14_" gradientUnits="userSpaceOnUse" x1="36.043" y1="-10.1934" x2="951.3781" y2="156.6909">
		<stop  offset="0" style="stop-color:#006C80"/>
		<stop  offset="0" style="stop-color:#006C80"/>
		<stop  offset="1" style="stop-color:#882957"/>
	</linearGradient>
	<path fill="url(#SVGID_14_)" d="M634.26,143.99c-0.091,0.453-0.136,0.952-0.136,1.495c0,2.356,0.812,4.325,2.447,5.914
		c1.629,1.58,3.619,2.375,5.979,2.375c1.991,0,3.669-0.588,5.025-1.763c1.36-1.181,2.354-2.539,2.989-4.079l32.347-83.038
		c0.453-1.085,0.681-2.127,0.681-3.125v-0.679c0-2.083-0.817-3.962-2.448-5.639c-1.627-1.676-3.626-2.515-5.979-2.515
		c-1.722,0-3.263,0.476-4.619,1.427c-1.36,0.951-2.448,2.244-3.266,3.873l-0.135,0.545l-32.478,83.85
		C634.485,143.084,634.347,143.535,634.26,143.99z"/>
	<linearGradient id="SVGID_15_" gradientUnits="userSpaceOnUse" x1="38.4766" y1="-23.3848" x2="953.7737" y2="143.4926">
		<stop  offset="0" style="stop-color:#006C80"/>
		<stop  offset="0" style="stop-color:#006C80"/>
		<stop  offset="1" style="stop-color:#882957"/>
	</linearGradient>
	<path fill="url(#SVGID_15_)" d="M619.446,64.759l20.658,52.729l8.425-22.287l-13.317-36.287c-0.816-1.72-1.834-3.148-3.059-4.281
		c-1.221-1.131-2.879-1.699-4.961-1.699c-2.176,0-4.124,0.815-5.845,2.446c-1.722,1.629-2.582,3.625-2.582,5.979
		c0,1.088,0.136,2.039,0.406,2.854L619.446,64.759z"/>
	<linearGradient id="SVGID_16_" gradientUnits="userSpaceOnUse" x1="43.9385" y1="-53.6289" x2="959.3054" y2="113.2612">
		<stop  offset="0" style="stop-color:#006C80"/>
		<stop  offset="0" style="stop-color:#006C80"/>
		<stop  offset="1" style="stop-color:#882957"/>
	</linearGradient>
	<path fill="url(#SVGID_16_)" d="M740.265,114.431c2.944,3.397,6.502,6.182,10.668,8.359c4.167,2.174,8.789,3.532,13.866,4.076
		v-16.173c-4.893-0.996-8.904-3.418-12.032-7.271c-3.123-3.849-4.688-20.997-4.688-26.705c0-2.807,0.407-15.92,1.225-18.414
		c0.816-2.492,1.969-4.665,3.463-6.523c1.5-1.856,3.263-3.398,5.306-4.621c2.039-1.224,4.278-2.059,6.727-2.513V28.609
		c-4.893,0.453-9.4,1.745-13.526,3.873c-4.122,2.131-7.677,4.871-10.669,8.223c-2.987,3.353-5.344,7.202-7.066,11.551
		c-1.72,4.35-2.579,19.479-2.579,24.461c0,4.803,0.816,21.747,2.445,26.094C735.033,107.16,737.321,111.033,740.265,114.431z"/>
	<linearGradient id="SVGID_17_" gradientUnits="userSpaceOnUse" x1="50.4248" y1="-89.624" x2="965.8895" y2="77.2839">
		<stop  offset="0" style="stop-color:#006C80"/>
		<stop  offset="0" style="stop-color:#006C80"/>
		<stop  offset="1" style="stop-color:#882957"/>
	</linearGradient>
	<path fill="url(#SVGID_17_)" d="M795.922,39.208c-2.361-2.262-4.986-4.19-7.887-5.775s-6.002-2.808-9.307-3.67
		c-3.306-0.86-6.593-1.292-9.856-1.292v15.901c3.811,0.091,7.224,1.044,10.261,2.854c3.034,1.813,5.46,4.168,7.273,7.067
		c0.727,1.541,1.743,2.764,3.057,3.67c1.312,0.906,2.876,1.358,4.689,1.358h0.273c2.355,0,4.326-0.837,5.91-2.514
		c1.586-1.675,2.376-3.646,2.376-5.911c0-1.45-0.362-2.807-1.083-4.078C800.18,44.012,798.274,41.474,795.922,39.208z"/>
	<linearGradient id="SVGID_18_" gradientUnits="userSpaceOnUse" x1="38.4111" y1="-23.6587" x2="953.8527" y2="143.245">
		<stop  offset="0" style="stop-color:#006C80"/>
		<stop  offset="0" style="stop-color:#006C80"/>
		<stop  offset="1" style="stop-color:#882957"/>
	</linearGradient>
	<path fill="url(#SVGID_18_)" d="M794.426,96.695c-3.263,0-5.709,1.18-7.344,3.534c-0.269,0.272-0.448,0.499-0.539,0.68
		c-1.631,2.717-3.939,5.097-6.932,7.134c-2.989,2.038-6.479,3.058-10.463,3.058h-0.276v16.037h0.276
		c6.884,0,13.062-1.562,18.546-4.689c5.481-3.125,9.897-7.223,13.252-12.298l0.543-0.816c0.635-1.176,0.954-2.583,0.954-4.212
		c0-2.175-0.772-4.123-2.312-5.845C798.588,97.558,796.688,96.695,794.426,96.695z"/>
	<linearGradient id="SVGID_19_" gradientUnits="userSpaceOnUse" x1="43.7124" y1="-52.3682" x2="959.0744" y2="114.521">
		<stop  offset="0" style="stop-color:#006C80"/>
		<stop  offset="0" style="stop-color:#006C80"/>
		<stop  offset="1" style="stop-color:#882957"/>
	</linearGradient>
	<path fill="url(#SVGID_19_)" d="M819.562,51.169c-2.176,0-4.073,0.748-5.705,2.242c-1.631,1.495-2.537,3.421-2.719,5.776v59.661
		c0.093,2.357,0.952,4.305,2.58,5.844c1.635,1.541,3.585,2.311,5.844,2.311c2.355,0,4.353-0.771,5.98-2.311
		c1.635-1.539,2.489-3.487,2.583-5.844V59.187c-0.182-2.264-1.088-4.166-2.719-5.709C823.78,51.938,821.832,51.169,819.562,51.169z"
		/>
	<linearGradient id="SVGID_20_" gradientUnits="userSpaceOnUse" x1="52.9204" y1="-102.813" x2="968.2717" y2="64.0743">
		<stop  offset="0" style="stop-color:#006C80"/>
		<stop  offset="0" style="stop-color:#006C80"/>
		<stop  offset="1" style="stop-color:#882957"/>
	</linearGradient>
	<path fill="url(#SVGID_20_)" d="M819.562,28.472c-2.082,0-3.938,0.679-5.567,2.039c-1.904,1.723-2.856,3.897-2.856,6.524
		c0,2.358,0.816,4.348,2.446,5.98c1.634,1.63,3.623,2.445,5.978,2.445c2.355,0,4.353-0.77,5.98-2.312
		c1.635-1.538,2.489-3.486,2.583-5.842v-0.681c0-2.354-0.84-4.302-2.513-5.844C823.938,29.243,821.918,28.472,819.562,28.472z"/>
	<linearGradient id="SVGID_21_" gradientUnits="userSpaceOnUse" x1="43.1582" y1="-49.5176" x2="958.5596" y2="117.3788">
		<stop  offset="0" style="stop-color:#006C80"/>
		<stop  offset="0" style="stop-color:#006C80"/>
		<stop  offset="1" style="stop-color:#882957"/>
	</linearGradient>
	<path fill="url(#SVGID_21_)" d="M859.111,124.828c0.82-0.814,1.451-1.72,1.905-2.718l0.135-0.272v-0.135l0.137-0.272l0.134-0.272
		v-0.271l0.137-0.406c0.094-0.363,0.136-0.951,0.136-1.768V70.604h-16.989v48.108c0,2.446,0.905,4.485,2.717,6.116
		c0.726,0.726,1.585,1.292,2.582,1.7c0.996,0.407,2.084,0.611,3.264,0.611c1.088,0,2.127-0.204,3.13-0.611
		C857.391,126.12,858.294,125.554,859.111,124.828z"/>
	<linearGradient id="SVGID_22_" gradientUnits="userSpaceOnUse" x1="52.0771" y1="-98.208" x2="967.429" y2="68.6794">
		<stop  offset="0" style="stop-color:#006C80"/>
		<stop  offset="0" style="stop-color:#006C80"/>
		<stop  offset="1" style="stop-color:#882957"/>
	</linearGradient>
	<path fill="url(#SVGID_22_)" d="M844.705,66.527h16.989h8.02c0.54,0,1.038-0.09,1.493-0.271c0.453-0.181,0.903-0.362,1.358-0.545
		c0.456-0.179,0.903-0.452,1.357-0.816c1.545-1.357,2.312-2.989,2.312-4.891c0-1.903-0.767-3.535-2.312-4.893
		c-1.087-1.089-2.537-1.633-4.344-1.633h-7.885V34.59c0-1.269-0.252-2.401-0.748-3.399c-0.495-0.995-1.153-1.903-1.969-2.719
		c-1.631-1.446-3.534-2.173-5.71-2.173c-2.268,0-4.21,0.728-5.846,2.173c-0.811,0.816-1.493,1.768-2.033,2.856v0.133l-0.141,0.272
		l-0.135,0.272v0.135l-0.138,0.272v0.409c-0.178,0.725-0.271,1.359-0.271,1.903v18.752H837.1c-0.817,0-1.543,0.137-2.176,0.41
		c-0.819,0.271-1.497,0.679-2.041,1.224c-1.445,1.269-2.178,2.9-2.178,4.893c0,1.994,0.732,3.623,2.178,4.891
		c1.088,1.088,2.537,1.633,4.351,1.633H844.705z"/>
	<linearGradient id="SVGID_23_" gradientUnits="userSpaceOnUse" x1="46.7324" y1="-69.3105" x2="962.167" y2="97.5919">
		<stop  offset="0" style="stop-color:#006C80"/>
		<stop  offset="0" style="stop-color:#006C80"/>
		<stop  offset="1" style="stop-color:#882957"/>
	</linearGradient>
	<path fill="url(#SVGID_23_)" d="M879.603,64.759l20.655,52.729l8.426-22.287l-13.317-36.287c-0.814-1.72-1.836-3.148-3.059-4.281
		c-1.222-1.131-2.88-1.699-4.956-1.699c-2.176,0-4.125,0.815-5.846,2.446c-1.727,1.629-2.581,3.625-2.581,5.979
		c0,1.088,0.137,2.039,0.405,2.854L879.603,64.759z"/>
	<linearGradient id="SVGID_24_" gradientUnits="userSpaceOnUse" x1="44.3994" y1="-56.1025" x2="959.7548" y2="110.7855">
		<stop  offset="0" style="stop-color:#006C80"/>
		<stop  offset="0" style="stop-color:#006C80"/>
		<stop  offset="1" style="stop-color:#882957"/>
	</linearGradient>
	<path fill="url(#SVGID_24_)" d="M941.3,55.45c-1.629-1.676-3.621-2.515-5.979-2.515c-1.721,0-3.259,0.476-4.616,1.427
		c-1.364,0.951-2.446,2.244-3.264,3.873l-0.135,0.545l-32.481,83.85c-0.185,0.454-0.32,0.905-0.412,1.36
		c-0.086,0.453-0.135,0.952-0.135,1.495c0,2.356,0.817,4.325,2.446,5.914c1.636,1.58,3.627,2.375,5.981,2.375
		c1.99,0,3.666-0.588,5.026-1.763c1.363-1.181,2.358-2.539,2.991-4.079l32.347-83.038c0.447-1.085,0.677-2.127,0.677-3.125v-0.679
		C943.746,59.007,942.931,57.127,941.3,55.45z"/>
	<linearGradient id="SVGID_25_" gradientUnits="userSpaceOnUse" x1="1.0811" y1="181.5234" x2="916.4631" y2="348.4163">
		<stop  offset="0" style="stop-color:#006C80"/>
		<stop  offset="0" style="stop-color:#006C80"/>
		<stop  offset="1" style="stop-color:#882957"/>
	</linearGradient>
	<path fill="url(#SVGID_25_)" d="M25.088,135.466c-2.357,0-4.329,0.769-5.913,2.309c-1.585,1.542-2.469,3.489-2.65,5.846v84.528
		c0.089,2.358,0.951,4.308,2.583,5.846c1.629,1.541,3.578,2.312,5.843,2.312c2.355,0,4.35-0.771,5.981-2.312
		c1.63-1.538,2.49-3.487,2.582-5.846v-0.678v-83.85c-0.182-2.264-1.066-4.19-2.65-5.776
		C29.276,136.259,27.352,135.466,25.088,135.466z"/>
	<linearGradient id="SVGID_26_" gradientUnits="userSpaceOnUse" x1="3.0342" y1="170.8223" x2="918.374" y2="337.7074">
		<stop  offset="0" style="stop-color:#006C80"/>
		<stop  offset="0" style="stop-color:#006C80"/>
		<stop  offset="1" style="stop-color:#882957"/>
	</linearGradient>
	<path fill="url(#SVGID_26_)" d="M123.89,153.404c-0.544-2.083-1.337-3.963-2.379-5.639c-1.041-1.675-2.378-3.375-4.006-5.097
		c-2.72-2.807-5.802-4.71-9.244-5.708c-3.444-0.997-6.659-1.494-9.648-1.494c-2.901,0-5.553,0.386-7.95,1.153
		c-2.402,0.771-4.578,1.792-6.523,3.06c-1.952,1.269-3.669,2.741-5.166,4.415c-1.494,1.678-2.785,3.423-3.872,5.233
		c-1.177-2.717-2.627-4.961-4.349-6.727c-1.72-1.767-3.558-3.169-5.504-4.213c-1.951-1.041-3.967-1.788-6.049-2.242
		c-2.084-0.452-4.031-0.679-5.843-0.679c-3.535,0-6.592,0.542-9.175,1.63c-2.582,1.087-4.78,2.312-6.59,3.669v15.359
		c1.176-1.269,2.648-2.354,4.416-3.264c1.767-0.903,3.918-1.357,6.456-1.357c2.99,0,5.39,0.589,7.202,1.765
		c1.811,1.177,3.216,2.65,4.215,4.417c0.995,1.767,1.674,3.762,2.038,5.979c0.36,2.221,0.544,12.277,0.544,14.269v49.948
		c0,2.357,0.817,4.349,2.446,5.975c1.629,1.635,3.623,2.451,5.979,2.451c2.626,0,4.709-0.886,6.252-2.65
		c1.542-1.771,2.311-3.876,2.311-6.319v-49.404c0-2.173,0.206-12.295,0.612-14.471c0.408-2.176,1.153-4.147,2.241-5.913
		c1.086-1.767,2.582-3.214,4.485-4.348c1.905-1.132,4.395-1.698,7.476-1.698c3.076,0,5.549,0.61,7.406,1.835
		c1.856,1.22,3.263,2.765,4.214,4.62c0.949,1.855,1.582,3.917,1.901,6.184c0.315,2.263,0.477,12.391,0.477,14.473v49.267
		c0,2.173,0.816,4.122,2.445,5.841c1.632,1.723,3.669,2.585,6.116,2.585c2.354,0,4.372-0.816,6.049-2.451
		c1.673-1.626,2.512-3.617,2.512-5.975v-49.948c0-3.622-0.114-14.719-0.338-17.394C124.816,157.868,124.433,155.489,123.89,153.404z
		"/>
	<linearGradient id="SVGID_27_" gradientUnits="userSpaceOnUse" x1="4.3833" y1="163.4004" x2="919.7451" y2="330.2896">
		<stop  offset="0" style="stop-color:#006C80"/>
		<stop  offset="0" style="stop-color:#006C80"/>
		<stop  offset="1" style="stop-color:#882957"/>
	</linearGradient>
	<path fill="url(#SVGID_27_)" d="M196.325,160.473c-2.268,0-4.213,0.792-5.845,2.376c-1.628,1.585-2.539,3.514-2.717,5.775v59.664
		c0.178,2.264,1.061,4.168,2.649,5.706c1.582,1.541,3.552,2.312,5.912,2.312c2.354,0,4.325-0.771,5.91-2.312
		c1.585-1.538,2.425-3.487,2.516-5.846l0.135-59.524c-0.182-2.354-1.087-4.302-2.717-5.845
		C200.539,161.244,198.586,160.473,196.325,160.473z"/>
	<linearGradient id="SVGID_28_" gradientUnits="userSpaceOnUse" x1="3.0635" y1="170.6172" x2="918.447" y2="337.5103">
		<stop  offset="0" style="stop-color:#006C80"/>
		<stop  offset="0" style="stop-color:#006C80"/>
		<stop  offset="1" style="stop-color:#882957"/>
	</linearGradient>
	<path fill="url(#SVGID_28_)" d="M178.792,219.18c-1.992,0.817-4.438,1.225-7.338,1.225c-2.989,0-5.505-0.479-7.542-1.427
		c-2.038-0.951-3.65-2.265-4.826-3.942c-1.18-1.673-2.018-3.67-2.516-5.979c-0.499-2.312-0.746-4.777-0.746-7.407V168.76
		c-0.182-2.355-1.066-4.326-2.649-5.911c-1.585-1.585-3.559-2.376-5.914-2.376c-2.356,0-4.347,0.837-5.979,2.513
		c-1.629,1.677-2.446,3.691-2.446,6.047v36.831c0,3.081,0.341,6.411,1.02,9.989c0.679,3.58,2.038,6.887,4.079,9.918
		c2.038,3.038,4.843,5.556,8.427,7.544c3.575,1.994,8.312,2.992,14.199,2.992c4.078,0,7.476-0.479,10.197-1.427
		c2.716-0.952,5.026-2.246,6.93-3.875v-15.358C182.417,217.188,180.785,218.365,178.792,219.18z"/>
	<linearGradient id="SVGID_29_" gradientUnits="userSpaceOnUse" x1="10.5488" y1="129.5522" x2="925.9346" y2="296.4458">
		<stop  offset="0" style="stop-color:#006C80"/>
		<stop  offset="0" style="stop-color:#006C80"/>
		<stop  offset="1" style="stop-color:#882957"/>
	</linearGradient>
	<path fill="url(#SVGID_29_)" d="M254.898,165.637c-0.729-1.269-1.724-2.333-2.99-3.196c-1.272-0.86-2.766-1.29-4.487-1.29
		c-0.543,0-1.176,0.092-1.901,0.27h-0.274c-1.628,0.454-3.122,1.021-4.483,1.699c-1.359,0.682-2.536,1.475-3.534,2.378v17.127
		c2.449-2.721,6.07-4.304,10.873-4.758c2.264-0.181,4.123-1.066,5.574-2.653c1.447-1.582,2.172-3.461,2.172-5.637
		c0-1.358-0.271-2.583-0.814-3.669L254.898,165.637z"/>
	<linearGradient id="SVGID_30_" gradientUnits="userSpaceOnUse" x1="5.2764" y1="158.5347" x2="920.6117" y2="325.419">
		<stop  offset="0" style="stop-color:#006C80"/>
		<stop  offset="0" style="stop-color:#006C80"/>
		<stop  offset="1" style="stop-color:#882957"/>
	</linearGradient>
	<path fill="url(#SVGID_30_)" d="M224.59,160.609c-2.356,0-4.327,0.812-5.91,2.445c-1.588,1.632-2.472,3.487-2.65,5.571v59.664
		c0.178,2.264,1.062,4.188,2.65,5.774c1.583,1.584,3.554,2.378,5.91,2.378c2.264,0,4.216-0.794,5.845-2.378
		c1.627-1.586,2.489-3.556,2.581-5.914l0.136-59.524c-0.181-2.354-1.066-4.281-2.65-5.775
		C228.917,161.355,226.944,160.609,224.59,160.609z"/>
	<linearGradient id="SVGID_31_" gradientUnits="userSpaceOnUse" x1="8.543" y1="140.6187" x2="923.8825" y2="307.5038">
		<stop  offset="0" style="stop-color:#006C80"/>
		<stop  offset="0" style="stop-color:#006C80"/>
		<stop  offset="1" style="stop-color:#882957"/>
	</linearGradient>
	<path fill="url(#SVGID_31_)" d="M325.428,160.473c-2.267,0-4.238,0.812-5.912,2.444c-1.677,1.632-2.513,3.582-2.513,5.843v59.254
		c0,2.355,0.812,4.326,2.445,5.913c1.63,1.585,3.623,2.379,5.979,2.379c1.812,0,3.397-0.479,4.758-1.427
		c1.358-0.952,2.396-2.197,3.125-3.738v-0.137c0.178-0.453,0.338-0.927,0.473-1.43c0.138-0.495,0.205-1.105,0.205-1.834v-58.708
		c0-2.356-0.837-4.37-2.514-6.047C329.799,161.31,327.783,160.473,325.428,160.473z"/>
	<linearGradient id="SVGID_32_" gradientUnits="userSpaceOnUse" x1="7.4819" y1="146.4048" x2="922.835" y2="313.2924">
		<stop  offset="0" style="stop-color:#006C80"/>
		<stop  offset="0" style="stop-color:#006C80"/>
		<stop  offset="1" style="stop-color:#882957"/>
	</linearGradient>
	<path fill="url(#SVGID_32_)" d="M292.81,160.473c-4.98,0-9.67,0.928-14.065,2.783c-4.395,1.858-8.245,4.443-11.551,7.749
		c-3.31,3.306-5.912,7.294-7.814,11.958c-1.901,4.666-2.854,9.807-2.854,15.425c0,5.077,0.817,9.898,2.445,14.475
		c1.632,4.575,4.01,8.585,7.136,12.027c3.125,3.443,6.934,6.206,11.416,8.288c4.483,2.085,9.582,3.129,15.288,3.129
		c3.807,0,7.451-0.586,10.942-1.769c3.486-1.176,6.501-2.989,9.038-5.437v-17.529c-1.723,2.626-4.034,4.754-6.932,6.383
		c-2.899,1.632-6.388,2.449-10.462,2.449c-3.809,0-7.093-0.698-9.855-2.107c-2.763-1.401-5.029-3.19-6.795-5.366
		c-1.767-2.177-3.057-4.53-3.872-7.067c-0.817-2.538-1.223-4.937-1.223-7.203c0-2.808,0.474-5.549,1.425-8.221
		c0.954-2.674,2.334-5.049,4.146-7.139c1.81-2.08,4.078-3.756,6.794-5.028c2.719-1.267,5.798-1.9,9.239-1.9
		c4.079,0,7.568,0.812,10.468,2.448c2.897,1.628,5.251,3.714,7.067,6.251v-17.125c-2.084-2.082-4.782-3.852-8.088-5.301
		C301.396,161.196,297.431,160.473,292.81,160.473z"/>
	<linearGradient id="SVGID_33_" gradientUnits="userSpaceOnUse" x1="11.6519" y1="123.6567" x2="926.9524" y2="290.5347">
		<stop  offset="0" style="stop-color:#006C80"/>
		<stop  offset="0" style="stop-color:#006C80"/>
		<stop  offset="1" style="stop-color:#882957"/>
	</linearGradient>
	<path fill="url(#SVGID_33_)" d="M353.015,135.466c-2.356,0-4.327,0.793-5.912,2.376c-1.586,1.588-2.468,3.513-2.648,5.778v84.528
		c0.089,2.358,0.953,4.308,2.581,5.846c1.632,1.541,3.624,2.312,5.98,2.312c2.264,0,4.214-0.771,5.846-2.312
		c1.63-1.538,2.492-3.487,2.581-5.846v-84.528c-0.182-2.265-1.067-4.19-2.649-5.778
		C357.205,136.259,355.279,135.466,353.015,135.466z"/>
	<linearGradient id="SVGID_34_" gradientUnits="userSpaceOnUse" x1="13.751" y1="112.0254" x2="929.1051" y2="278.9131">
		<stop  offset="0" style="stop-color:#006C80"/>
		<stop  offset="0" style="stop-color:#006C80"/>
		<stop  offset="1" style="stop-color:#882957"/>
	</linearGradient>
	<path fill="url(#SVGID_34_)" d="M418.926,135.466c-2.357,0-4.326,0.771-5.911,2.31c-1.585,1.543-2.469,3.489-2.65,5.845v84.532
		c0.181,2.354,1.065,4.303,2.65,5.845c1.585,1.537,3.554,2.309,5.911,2.309c2.266,0,4.213-0.771,5.845-2.309
		c1.629-1.542,2.488-3.491,2.581-5.845v-0.683v-83.85c0-2.265-0.863-4.189-2.581-5.776
		C423.047,136.259,421.103,135.466,418.926,135.466z"/>
	<linearGradient id="SVGID_35_" gradientUnits="userSpaceOnUse" x1="17.0195" y1="94.1309" x2="932.3588" y2="261.0159">
		<stop  offset="0" style="stop-color:#006C80"/>
		<stop  offset="0" style="stop-color:#006C80"/>
		<stop  offset="1" style="stop-color:#882957"/>
	</linearGradient>
	<path fill="url(#SVGID_35_)" d="M478.72,148.24c-2.898-3.714-6.588-6.771-11.071-9.172c-4.483-2.4-9.854-3.602-16.106-3.602
		c-4.258,0-8.042,0.658-11.348,1.971c-3.306,1.314-6.183,3.013-8.629,5.097v16.715c1.81-2.446,4.19-4.37,7.135-5.775
		c2.946-1.404,6.138-2.106,9.584-2.106c3.622,0,6.793,0.659,9.512,1.971c2.717,1.312,4.982,3.033,6.793,5.165
		c1.812,2.129,3.172,4.506,4.078,7.135c0.903,2.63,1.36,5.254,1.36,7.882c0,2.902-0.524,5.684-1.564,8.36
		c-1.042,2.673-2.516,5.024-4.418,7.066c-1.901,2.037-4.168,3.648-6.793,4.822c-2.631,1.179-5.575,1.768-8.833,1.768
		c-3.354,0-6.57-0.725-9.65-2.173c-3.083-1.45-5.482-3.352-7.203-5.709v16.715c2.083,1.812,4.757,3.422,8.018,4.823
		c3.264,1.405,7.292,2.11,12.094,2.11c5.255,0,10.06-0.998,14.407-2.992c4.352-1.993,8.087-4.688,11.213-8.086
		c3.125-3.398,5.55-7.339,7.271-11.824c1.722-4.484,2.582-9.259,2.582-14.336c0-4.351-0.681-8.809-2.038-13.388
		C483.754,156.103,481.625,151.957,478.72,148.24z"/>
	<linearGradient id="SVGID_36_" gradientUnits="userSpaceOnUse" x1="19.5264" y1="79.999" x2="934.9896" y2="246.9067">
		<stop  offset="0" style="stop-color:#006C80"/>
		<stop  offset="0" style="stop-color:#006C80"/>
		<stop  offset="1" style="stop-color:#882957"/>
	</linearGradient>
	<path fill="url(#SVGID_36_)" d="M535.668,165.637c-0.729-1.269-1.726-2.333-2.991-3.196c-1.271-0.86-2.765-1.29-4.487-1.29
		c-0.545,0-1.176,0.092-1.899,0.27h-0.271c-1.633,0.454-3.129,1.021-4.487,1.699c-1.356,0.682-2.539,1.475-3.532,2.378v17.127
		c2.444-2.721,6.069-4.304,10.87-4.758c2.267-0.181,4.124-1.066,5.576-2.653c1.447-1.582,2.173-3.461,2.173-5.637
		c0-1.358-0.272-2.583-0.816-3.669L535.668,165.637z"/>
	<linearGradient id="SVGID_37_" gradientUnits="userSpaceOnUse" x1="14.3076" y1="108.9912" x2="929.6537" y2="275.8775">
		<stop  offset="0" style="stop-color:#006C80"/>
		<stop  offset="0" style="stop-color:#006C80"/>
		<stop  offset="1" style="stop-color:#882957"/>
	</linearGradient>
	<path fill="url(#SVGID_37_)" d="M505.357,160.609c-2.355,0-4.325,0.812-5.91,2.445c-1.587,1.632-2.469,3.487-2.648,5.571v59.664
		c0.18,2.264,1.062,4.188,2.648,5.774c1.585,1.584,3.555,2.378,5.91,2.378c2.267,0,4.215-0.794,5.848-2.378
		c1.631-1.586,2.49-3.556,2.579-5.914l0.134-59.524c-0.177-2.354-1.06-4.281-2.646-5.775
		C509.687,161.355,507.716,160.609,505.357,160.609z"/>
	<linearGradient id="SVGID_38_" gradientUnits="userSpaceOnUse" x1="16.6934" y1="96.0752" x2="931.9897" y2="262.9525">
		<stop  offset="0" style="stop-color:#006C80"/>
		<stop  offset="0" style="stop-color:#006C80"/>
		<stop  offset="1" style="stop-color:#882957"/>
	</linearGradient>
	<path fill="url(#SVGID_38_)" d="M605.114,173.517c-3.086-3.534-6.868-6.453-11.351-8.766c-4.483-2.31-9.674-3.6-15.561-3.871
		v16.035c2.719,0.269,5.234,0.997,7.543,2.176c2.31,1.179,4.304,2.715,5.979,4.621c1.678,1.898,3.009,4.122,4.009,6.655
		c0.996,2.537,1.496,5.303,1.496,8.292c0,2.988-0.5,5.754-1.496,8.291c-1,2.537-2.331,4.755-4.009,6.658
		c-1.676,1.901-3.67,3.443-5.979,4.618c-2.309,1.181-4.824,1.904-7.543,2.177v16.036c5.887-0.273,11.077-1.54,15.561-3.807
		c4.482-2.264,8.265-5.163,11.351-8.697c3.077-3.532,5.387-7.494,6.927-11.889c1.541-4.394,2.312-8.856,2.312-13.388
		c0-4.438-0.771-8.855-2.312-13.253C610.501,181.017,608.191,177.052,605.114,173.517z"/>
	<linearGradient id="SVGID_39_" gradientUnits="userSpaceOnUse" x1="16.4912" y1="97.2065" x2="931.7814" y2="264.0826">
		<stop  offset="0" style="stop-color:#006C80"/>
		<stop  offset="0" style="stop-color:#006C80"/>
		<stop  offset="1" style="stop-color:#882957"/>
	</linearGradient>
	<path fill="url(#SVGID_39_)" d="M547.219,173.517c-3.081,3.535-5.393,7.5-6.932,11.89c-1.544,4.397-2.312,8.815-2.312,13.253
		c0,4.531,0.769,8.994,2.312,13.388c1.539,4.395,3.851,8.356,6.932,11.889c3.08,3.534,6.861,6.434,11.344,8.697
		c4.488,2.267,9.672,3.533,15.562,3.807v-16.036c-2.717-0.272-5.229-0.996-7.541-2.177c-2.311-1.175-4.327-2.717-6.047-4.618
		c-1.726-1.903-3.081-4.121-4.078-6.658c-0.996-2.537-1.492-5.303-1.492-8.291c0-2.989,0.496-5.755,1.492-8.292
		c0.997-2.533,2.353-4.757,4.078-6.655c1.72-1.906,3.736-3.442,6.047-4.621c2.312-1.179,4.824-1.907,7.541-2.176v-16.035
		c-5.89,0.271-11.073,1.561-15.562,3.871C554.08,167.064,550.299,169.983,547.219,173.517z"/>
	<linearGradient id="SVGID_40_" gradientUnits="userSpaceOnUse" x1="16.9502" y1="94.4014" x2="932.3181" y2="261.2916">
		<stop  offset="0" style="stop-color:#006C80"/>
		<stop  offset="0" style="stop-color:#006C80"/>
		<stop  offset="1" style="stop-color:#882957"/>
	</linearGradient>
	<path fill="url(#SVGID_40_)" d="M686.925,160.881c-2.36,0-4.375,0.837-6.047,2.511c-1.68,1.677-2.519,3.696-2.519,6.05v60.475
		c0,3.625-0.633,6.772-1.902,9.448c-1.269,2.669-2.923,4.889-4.959,6.656c-2.039,1.767-4.306,3.103-6.793,4.011
		c-2.497,0.903-5.01,1.358-7.545,1.358c-1.178,0-2.585-0.185-4.215-0.544c-1.629-0.364-3.354-0.999-5.163-1.902
		c-1.901-0.908-3.442-2.061-4.621-3.467c-1.18-1.404-2.263-2.74-3.261-4.007c-0.995-1.272-2.061-2.381-3.193-3.33
		c-1.134-0.952-2.605-1.426-4.417-1.426c-2.631,0-4.824,0.923-6.594,2.782c-1.765,1.857-2.647,4.009-2.647,6.457
		c0,2.446,0.883,4.866,2.647,7.271c1.77,2.398,4.17,4.551,7.203,6.458c3.034,1.9,6.548,3.415,10.534,4.549
		c3.987,1.131,8.199,1.7,12.638,1.7c7.341,0,13.863-1.43,19.572-4.28c5.706-2.854,10.1-6.322,13.182-10.396
		c2.262-2.993,3.94-6.479,5.029-10.467c1.088-3.988,1.63-8.922,1.63-14.811v-56.806c-0.184-2.359-1.112-4.33-2.784-5.917
		C691.019,161.672,689.098,160.881,686.925,160.881z"/>
	<linearGradient id="SVGID_41_" gradientUnits="userSpaceOnUse" x1="19.0742" y1="82.9521" x2="934.3925" y2="249.8334">
		<stop  offset="0" style="stop-color:#006C80"/>
		<stop  offset="0" style="stop-color:#006C80"/>
		<stop  offset="1" style="stop-color:#882957"/>
	</linearGradient>
	<path fill="url(#SVGID_41_)" d="M640.715,233.928c4.438,1.855,9.243,2.787,14.406,2.787c4.35,0,8.086-0.704,11.214-2.107
		c3.124-1.404,5.729-3.148,7.812-5.231v-16.989c-1.813,2.627-4.212,4.666-7.199,6.115c-2.993,1.449-6.255,2.174-9.787,2.174
		c-3.08,0-5.937-0.565-8.562-1.698c-2.631-1.134-4.893-2.672-6.795-4.619c-1.902-1.948-3.375-4.284-4.417-7.003
		c-1.044-2.717-1.562-5.66-1.562-8.832s0.564-6.069,1.697-8.695c1.132-2.628,2.672-4.894,4.62-6.799
		c1.949-1.9,4.211-3.397,6.797-4.481c2.582-1.088,5.32-1.632,8.222-1.632c3.985,0,7.408,0.771,10.26,2.309
		c2.854,1.543,5.098,3.536,6.727,5.98v-17.531c-2.355-2.084-5.163-3.714-8.427-4.895c-3.261-1.173-6.792-1.763-10.599-1.763
		c-4.893,0-9.559,0.881-13.999,2.647c-4.438,1.768-8.312,4.306-11.617,7.613c-3.307,3.306-5.936,7.317-7.884,12.024
		c-1.949,4.715-2.924,9.968-2.924,15.767c0,5.528,0.929,10.598,2.788,15.22c1.856,4.622,4.417,8.586,7.68,11.893
		C632.424,229.488,636.275,232.07,640.715,233.928z"/>
	<linearGradient id="SVGID_42_" gradientUnits="userSpaceOnUse" x1="21.0684" y1="72.1411" x2="936.3604" y2="239.0176">
		<stop  offset="0" style="stop-color:#006C80"/>
		<stop  offset="0" style="stop-color:#006C80"/>
		<stop  offset="1" style="stop-color:#882957"/>
	</linearGradient>
	<path fill="url(#SVGID_42_)" d="M714.24,160.609c-2.359,0-4.329,0.812-5.913,2.445c-1.587,1.632-2.468,3.487-2.648,5.571v59.664
		c0.181,2.264,1.062,4.188,2.648,5.774c1.584,1.584,3.554,2.378,5.913,2.378c2.263,0,4.212-0.794,5.843-2.378
		c1.634-1.586,2.493-3.556,2.583-5.914l0.135-59.524c-0.183-2.354-1.065-4.281-2.649-5.775
		C718.565,161.355,716.594,160.609,714.24,160.609z"/>
	<linearGradient id="SVGID_43_" gradientUnits="userSpaceOnUse" x1="26.2437" y1="43.1406" x2="941.6759" y2="210.0426">
		<stop  offset="0" style="stop-color:#006C80"/>
		<stop  offset="0" style="stop-color:#006C80"/>
		<stop  offset="1" style="stop-color:#882957"/>
	</linearGradient>
	<path fill="url(#SVGID_43_)" d="M744.547,165.637c-0.727-1.269-1.723-2.333-2.99-3.196c-1.271-0.86-2.765-1.29-4.484-1.29
		c-0.545,0-1.177,0.092-1.905,0.27h-0.268c-1.633,0.454-3.13,1.021-4.486,1.699c-1.36,0.682-2.54,1.475-3.537,2.378v17.127
		c2.449-2.721,6.069-4.304,10.874-4.758c2.264-0.181,4.124-1.066,5.573-2.653c1.449-1.582,2.173-3.461,2.173-5.637
		c0-1.358-0.269-2.583-0.812-3.669L744.547,165.637z"/>
	<linearGradient id="SVGID_44_" gradientUnits="userSpaceOnUse" x1="24.3506" y1="54.2275" x2="939.6358" y2="221.1028">
		<stop  offset="0" style="stop-color:#006C80"/>
		<stop  offset="0" style="stop-color:#006C80"/>
		<stop  offset="1" style="stop-color:#882957"/>
	</linearGradient>
	<path fill="url(#SVGID_44_)" d="M815.076,160.473c-2.267,0-4.233,0.812-5.912,2.444c-1.675,1.632-2.512,3.582-2.512,5.843v59.254
		c0,2.355,0.812,4.326,2.444,5.913c1.631,1.585,3.624,2.379,5.979,2.379c1.814,0,3.398-0.479,4.759-1.427
		c1.359-0.952,2.397-2.197,3.125-3.738v-0.137c0.18-0.453,0.338-0.927,0.473-1.43c0.14-0.495,0.205-1.105,0.205-1.834v-58.708
		c0-2.356-0.837-4.37-2.511-6.047C819.446,161.31,817.432,160.473,815.076,160.473z"/>
	<linearGradient id="SVGID_45_" gradientUnits="userSpaceOnUse" x1="23.2339" y1="60.0039" x2="938.587" y2="226.8915">
		<stop  offset="0" style="stop-color:#006C80"/>
		<stop  offset="0" style="stop-color:#006C80"/>
		<stop  offset="1" style="stop-color:#882957"/>
	</linearGradient>
	<path fill="url(#SVGID_45_)" d="M782.459,160.473c-4.981,0-9.671,0.928-14.065,2.783c-4.395,1.858-8.244,4.443-11.55,7.749
		c-3.312,3.306-5.913,7.294-7.815,11.958c-1.903,4.666-2.854,9.807-2.854,15.425c0,5.077,0.817,9.898,2.446,14.475
		c1.631,4.575,4.01,8.585,7.135,12.027c3.126,3.443,6.932,6.206,11.415,8.288c4.482,2.085,9.583,3.129,15.289,3.129
		c3.805,0,7.45-0.586,10.941-1.769c3.486-1.176,6.5-2.989,9.037-5.437v-17.529c-1.721,2.626-4.032,4.754-6.932,6.383
		c-2.9,1.632-6.388,2.449-10.463,2.449c-3.807,0-7.092-0.698-9.854-2.107c-2.763-1.401-5.026-3.19-6.795-5.366
		c-1.766-2.177-3.06-4.53-3.87-7.067c-0.82-2.538-1.225-4.937-1.225-7.203c0-2.808,0.473-5.549,1.424-8.221
		c0.953-2.674,2.333-5.049,4.146-7.139c1.812-2.08,4.078-3.756,6.796-5.028c2.72-1.267,5.797-1.9,9.24-1.9
		c4.076,0,7.565,0.812,10.465,2.448c2.898,1.628,5.253,3.714,7.067,6.251v-17.125c-2.085-2.082-4.781-3.852-8.085-5.301
		C791.044,161.196,787.079,160.473,782.459,160.473z"/>
	<linearGradient id="SVGID_46_" gradientUnits="userSpaceOnUse" x1="27.1445" y1="38.5371" x2="942.5009" y2="205.4253">
		<stop  offset="0" style="stop-color:#006C80"/>
		<stop  offset="0" style="stop-color:#006C80"/>
		<stop  offset="1" style="stop-color:#882957"/>
	</linearGradient>
	<path fill="url(#SVGID_46_)" d="M942.144,178.408c-0.539-2.084-1.336-3.961-2.375-5.639c-1.047-1.674-2.381-3.375-4.011-5.095
		c-2.719-2.808-5.798-4.71-9.24-5.706c-3.445-1-6.662-1.496-9.649-1.496c-2.899,0-5.55,0.385-7.951,1.154s-4.577,1.792-6.524,3.059
		c-1.95,1.269-3.671,2.741-5.164,4.415c-1.495,1.678-2.785,3.421-3.874,5.233c-1.178-2.714-2.627-4.961-4.349-6.725
		c-1.722-1.771-3.556-3.174-5.502-4.216c-1.95-1.04-3.965-1.786-6.049-2.24c-2.085-0.452-4.031-0.679-5.844-0.679
		c-3.535,0-6.592,0.544-9.173,1.632c-2.583,1.085-4.779,2.309-6.594,3.667v15.357c1.18-1.27,2.652-2.354,4.42-3.262
		c1.764-0.902,3.916-1.357,6.454-1.357c2.993,0,5.389,0.591,7.204,1.763c1.812,1.181,3.214,2.652,4.211,4.417
		c0.997,1.77,1.675,3.761,2.041,5.979c0.358,2.225,0.541,4.331,0.541,6.323v32.89c0,2.357,0.818,4.349,2.45,5.975
		c1.627,1.635,3.619,2.451,5.978,2.451c2.624,0,4.708-0.886,6.251-2.65c1.538-1.771,2.313-3.876,2.313-6.319v-32.346
		c0-2.177,0.201-4.35,0.611-6.521c0.402-2.177,1.153-4.147,2.236-5.915c1.09-1.765,2.586-3.215,4.488-4.347
		c1.901-1.134,4.395-1.698,7.474-1.698c3.078,0,5.549,0.611,7.409,1.834c1.852,1.223,3.261,2.764,4.215,4.619
		c0.948,1.859,1.58,3.92,1.9,6.183c0.315,2.268,0.476,4.443,0.476,6.525v32.21c0,2.173,0.816,4.122,2.446,5.841
		c1.629,1.723,3.669,2.585,6.114,2.585c2.355,0,4.371-0.816,6.051-2.451c1.673-1.626,2.513-3.617,2.513-5.975v-32.89
		c0-3.622-0.116-6.771-0.342-9.444C943.072,182.872,942.688,180.497,942.144,178.408z"/>
	<linearGradient id="SVGID_47_" gradientUnits="userSpaceOnUse" x1="25.208" y1="49.2417" x2="940.5477" y2="216.1268">
		<stop  offset="0" style="stop-color:#006C80"/>
		<stop  offset="0" style="stop-color:#006C80"/>
		<stop  offset="1" style="stop-color:#882957"/>
	</linearGradient>
	<path fill="url(#SVGID_47_)" d="M843.343,160.473c-2.355,0-4.325,0.771-5.91,2.307c-1.588,1.543-2.469,3.491-2.653,5.845v59.524
		c0.091,2.358,0.954,4.308,2.583,5.846c1.632,1.541,3.58,2.312,5.845,2.312c2.353,0,4.349-0.771,5.978-2.312
		c1.634-1.538,2.495-3.487,2.585-5.846v-0.678v-58.846c-0.184-2.262-1.067-4.19-2.651-5.775S845.606,160.473,843.343,160.473z"/>
</g>
</svg>
